<svg xmlns="http://www.w3.org/2000/svg" width="9" height="11" viewBox="0 0 9 11" fill="none">
  <g clip-path="url(#clip0_5504_235)">
    <path d="M4.88756 1.13224C5.596 0.205567 6.58091 0.20105 6.58091 0.20105C6.58091 0.20105 6.72741 1.07228 6.02361 1.91155C5.27212 2.8077 4.41795 2.66106 4.41795 2.66106C4.41795 2.66106 4.25756 1.95627 4.88756 1.13224V1.13224ZM4.50806 3.27136C4.87252 3.27136 5.54894 2.77416 6.42939 2.77416C7.94494 2.77416 8.54116 3.8444 8.54116 3.8444C8.54116 3.8444 7.37506 4.43608 7.37506 5.87175C7.37506 7.49132 8.8277 8.04947 8.8277 8.04947C8.8277 8.04947 7.81225 10.8859 6.44068 10.8859C5.81072 10.8859 5.32096 10.4646 4.6572 10.4646C3.98078 10.4646 3.30954 10.9016 2.87235 10.9016C1.61989 10.9016 0.0375977 8.211 0.0375977 6.04817C0.0375977 3.92025 1.3769 2.80398 2.63312 2.80398C3.44977 2.80398 4.0835 3.27136 4.50806 3.27136V3.27136Z" fill="#999999"/>
  </g>
  <defs>
    <clipPath id="clip0_5504_235">
      <rect width="8.7901" height="10.701" fill="white" transform="translate(0.0375977 0.200073)"/>
    </clipPath>
  </defs>
</svg>