<svg xmlns="http://www.w3.org/2000/svg" width="15" height="15" viewBox="0 0 15 15" fill="none">
  <path d="M8.38404 0.544434C8.19919 0.544434 8.02192 0.617864 7.89121 0.748571C7.7605 0.879277 7.68707 1.05655 7.68707 1.2414V6.81714C7.68707 7.00199 7.7605 7.17926 7.89121 7.30997C8.02192 7.44068 8.19919 7.51411 8.38404 7.51411H13.9598C14.1446 7.51411 14.3219 7.44068 14.4526 7.30997C14.5833 7.17926 14.6567 7.00199 14.6567 6.81714C14.6567 5.15352 13.9959 3.55803 12.8195 2.38167C11.6432 1.20531 10.0477 0.544434 8.38404 0.544434V0.544434ZM9.08101 6.12017V1.98716C10.1238 2.13743 11.09 2.62124 11.8349 3.36623C12.5799 4.11123 13.0637 5.07737 13.214 6.12017H9.08101Z" fill="white"/>
  <path d="M13.8343 8.94987C13.7479 8.91896 13.6561 8.90544 13.5644 8.9101C13.4727 8.91475 13.3828 8.93749 13.2999 8.977C13.217 9.0165 13.1427 9.07201 13.0813 9.14031C13.02 9.20862 12.9727 9.28838 12.9422 9.37502C12.6281 10.2629 12.0943 11.0568 11.3904 11.6825C10.6866 12.3083 9.83567 12.7456 8.91713 12.9536C7.99859 13.1616 7.04232 13.1335 6.13756 12.872C5.23279 12.6105 4.409 12.1241 3.74305 11.4582C3.0771 10.7922 2.59068 9.96842 2.32919 9.06365C2.06769 8.15888 2.03964 7.20262 2.24764 6.28407C2.45564 5.36553 2.89292 4.51464 3.51869 3.8108C4.14445 3.10695 4.9383 2.57307 5.82618 2.25898C6.00086 2.19798 6.14416 2.07009 6.22454 1.90344C6.30493 1.73679 6.31582 1.54503 6.25482 1.37035C6.19382 1.19567 6.06593 1.05237 5.89928 0.97199C5.73262 0.891605 5.54087 0.880714 5.36619 0.941714C4.25595 1.33395 3.26318 2.00108 2.48054 2.88083C1.69791 3.76058 1.15091 4.82428 0.890623 5.97264C0.630332 7.121 0.665225 8.31659 0.992045 9.44781C1.31887 10.579 1.92696 11.609 2.75957 12.4416C3.59218 13.2742 4.62217 13.8823 5.75339 14.2092C6.88462 14.536 8.0802 14.5709 9.22857 14.3106C10.3769 14.0503 11.4406 13.5033 12.3204 12.7207C13.2001 11.938 13.8673 10.9453 14.2595 9.83502C14.3198 9.66123 14.3089 9.47067 14.2293 9.30486C14.1496 9.13905 14.0077 9.01145 13.8343 8.94987Z" fill="white"/>
</svg>