<svg xmlns="http://www.w3.org/2000/svg" width="12" height="12" viewBox="0 0 12 12" fill="none">
  <g clip-path="url(#clip0_5504_227)">
    <path d="M11.2181 6.41494C11.2181 5.97653 11.1817 5.6566 11.1029 5.32483H5.97986V7.30361H8.98699C8.92638 7.79537 8.59899 8.53594 7.87144 9.03358L7.86124 9.09983L9.48106 10.3261L9.59329 10.337C10.6239 9.40685 11.2181 8.03826 11.2181 6.41494" fill="#4285F4"/>
    <path d="M5.97986 11.6286C7.4531 11.6286 8.68989 11.1546 9.59328 10.3371L7.87144 9.03362C7.41067 9.34763 6.79225 9.56683 5.97986 9.56683C4.53692 9.56683 3.31224 8.6367 2.87568 7.35107L2.81169 7.35638L1.12737 8.63017L1.10535 8.69C2.00263 10.4318 3.84573 11.6286 5.97986 11.6286Z" fill="#34A853"/>
    <path d="M2.87566 7.35114C2.76047 7.01937 2.6938 6.66387 2.6938 6.29656C2.6938 5.92922 2.76047 5.57375 2.8696 5.24198L2.86655 5.17132L1.16113 3.87708L1.10533 3.90301C0.735516 4.62582 0.523315 5.4375 0.523315 6.29656C0.523315 7.15562 0.735516 7.96726 1.10533 8.69007L2.87566 7.35114" fill="#FBBC05"/>
    <path d="M5.97986 3.02609C7.00445 3.02609 7.6956 3.45858 8.0897 3.82001L9.62965 2.35071C8.68388 1.49164 7.4531 0.964355 5.97986 0.964355C3.84573 0.964355 2.00263 2.16111 1.10535 3.90292L2.86962 5.24189C3.31224 3.95626 4.53692 3.02609 5.97986 3.02609" fill="#EB4335"/>
  </g>
  <defs>
    <clipPath id="clip0_5504_227">
      <rect width="10.701" height="10.701" fill="white" transform="translate(0.522705 0.964355)"/>
    </clipPath>
  </defs>
</svg>