<svg xmlns="http://www.w3.org/2000/svg" width="16" height="17" viewBox="0 0 16 17" fill="none">
  <path d="M5.5967 14.1103H3.50591C2.76657 14.1103 2.0575 13.8166 1.5347 13.2938C1.01191 12.771 0.718201 12.062 0.718201 11.3226V5.05029C0.718201 4.31094 1.01191 3.60187 1.5347 3.07908C2.0575 2.55628 2.76657 2.26257 3.50591 2.26257H11.1721C11.9115 2.26257 12.6205 2.55628 13.1433 3.07908C13.6661 3.60187 13.9598 4.31094 13.9598 5.05029V7.14107" stroke="white" stroke-width="1.16155" stroke-linecap="round" stroke-linejoin="round"/>
  <path d="M4.89978 1.56567V2.95953" stroke="white" stroke-width="1.16155" stroke-linecap="round" stroke-linejoin="round"/>
  <path d="M9.77832 1.56567V2.95953" stroke="white" stroke-width="1.16155" stroke-linecap="round" stroke-linejoin="round"/>
  <path d="M0.718201 5.74731H13.9598" stroke="white" stroke-width="1.16155" stroke-linecap="round" stroke-linejoin="round"/>
  <path d="M12.2175 11.0739L11.1721 12.1192" stroke="white" stroke-width="1.16155" stroke-linecap="round" stroke-linejoin="round"/>
  <path d="M11.1721 15.5042C13.0967 15.5042 14.6568 13.9441 14.6568 12.0196C14.6568 10.095 13.0967 8.53491 11.1721 8.53491C9.24763 8.53491 7.6875 10.095 7.6875 12.0196C7.6875 13.9441 9.24763 15.5042 11.1721 15.5042Z" stroke="white" stroke-width="1.16155" stroke-linecap="round" stroke-linejoin="round"/>
</svg>