<svg xmlns="http://www.w3.org/2000/svg" width="14" height="15" viewBox="0 0 14 15" fill="none">
  <path d="M13.7398 9.3279L12.7208 8.45668C12.769 8.16109 12.7939 7.85927 12.7939 7.55746C12.7939 7.25564 12.769 6.95382 12.7208 6.65823L13.7398 5.78701C13.8167 5.72121 13.8717 5.63358 13.8976 5.53576C13.9234 5.43793 13.9189 5.33456 13.8845 5.23939L13.8705 5.19894C13.59 4.41488 13.1699 3.68805 12.6306 3.05356L12.6026 3.02089C12.5372 2.94396 12.45 2.88866 12.3525 2.86227C12.255 2.83589 12.1518 2.83966 12.0565 2.87309L10.7917 3.3227C10.325 2.93999 9.80379 2.63817 9.24061 2.42659L8.99635 1.1042C8.97793 1.0047 8.92966 0.913159 8.85796 0.841743C8.78627 0.770326 8.69454 0.722415 8.59497 0.704373L8.55296 0.696594C7.74242 0.550354 6.88987 0.550354 6.07932 0.696594L6.03732 0.704373C5.93774 0.722415 5.84602 0.770326 5.77432 0.841743C5.70263 0.913159 5.65436 1.0047 5.63593 1.1042L5.39012 2.43281C4.83144 2.64444 4.31116 2.94609 3.84993 3.32581L2.57577 2.87309C2.4805 2.8394 2.37724 2.83549 2.2797 2.86189C2.18216 2.88829 2.09497 2.94374 2.0297 3.02089L2.0017 3.05356C1.46301 3.6885 1.04301 4.41521 0.761765 5.19894L0.747763 5.23939C0.677754 5.43386 0.735317 5.65166 0.892448 5.78701L1.92391 6.66757C1.87568 6.96005 1.85235 7.25875 1.85235 7.5559C1.85235 7.8546 1.87568 8.15331 1.92391 8.44423L0.892448 9.32479C0.815587 9.39059 0.760577 9.47822 0.734732 9.57604C0.708887 9.67387 0.713432 9.77724 0.747763 9.87241L0.761765 9.91286C1.04336 10.697 1.4603 11.4204 2.0017 12.0582L2.0297 12.0909C2.09513 12.1678 2.18233 12.2231 2.27981 12.2495C2.37729 12.2759 2.48048 12.2721 2.57577 12.2387L3.84993 11.786C4.31354 12.1671 4.83161 12.469 5.39012 12.679L5.63593 14.0076C5.65436 14.1071 5.70263 14.1986 5.77432 14.2701C5.84602 14.3415 5.93774 14.3894 6.03732 14.4074L6.07932 14.4152C6.89731 14.5622 7.73497 14.5622 8.55296 14.4152L8.59497 14.4074C8.69454 14.3894 8.78627 14.3415 8.85796 14.2701C8.92966 14.1986 8.97793 14.1071 8.99635 14.0076L9.24061 12.6852C9.80356 12.4742 10.3277 12.1714 10.7917 11.7891L12.0565 12.2387C12.1518 12.2724 12.255 12.2763 12.3526 12.2499C12.4501 12.2235 12.5373 12.1681 12.6026 12.0909L12.6306 12.0582C13.172 11.4188 13.5889 10.697 13.8705 9.91286L13.8845 9.87241C13.9545 9.68106 13.897 9.46325 13.7398 9.3279V9.3279ZM11.6162 6.84181C11.6551 7.07673 11.6754 7.31787 11.6754 7.55901C11.6754 7.80015 11.6551 8.04129 11.6162 8.27621L11.5136 8.90007L12.6757 9.89419C12.4995 10.3001 12.2771 10.6843 12.013 11.0392L10.5692 10.5274L10.0807 10.9288C9.70889 11.2337 9.29506 11.4733 8.847 11.6413L8.25426 11.8638L7.97578 13.3729C7.53639 13.4226 7.09278 13.4226 6.65339 13.3729L6.37491 11.8607L5.78684 11.6351C5.34345 11.4671 4.93118 11.2275 4.56246 10.9241L4.07396 10.5212L2.62089 11.0377C2.35641 10.6814 2.13549 10.2971 1.95814 9.89264L3.13273 8.88918L3.03161 8.26688C2.99427 8.03507 2.97404 7.79549 2.97404 7.55901C2.97404 7.32098 2.99271 7.08295 3.03161 6.85114L3.13273 6.22884L1.95814 5.22538C2.13394 4.81933 2.35641 4.43662 2.62089 4.08035L4.07396 4.59686L4.56246 4.19392C4.93118 3.89055 5.34345 3.65097 5.78684 3.48294L6.37647 3.26047L6.65495 1.74828C7.09211 1.6985 7.53862 1.6985 7.97734 1.74828L8.25582 3.25736L8.84856 3.47983C9.29506 3.64785 9.71044 3.88744 10.0823 4.19237L10.5708 4.59375L12.0145 4.08191C12.279 4.43818 12.4999 4.82245 12.6773 5.22694L11.5151 6.22107L11.6162 6.84181ZM7.3177 4.66531C5.80551 4.66531 4.57958 5.89125 4.57958 7.40344C4.57958 8.91563 5.80551 10.1416 7.3177 10.1416C8.82989 10.1416 10.0558 8.91563 10.0558 7.40344C10.0558 5.89125 8.82989 4.66531 7.3177 4.66531ZM8.54985 8.63559C8.38824 8.79766 8.19619 8.92618 7.98473 9.01376C7.77326 9.10133 7.54658 9.14623 7.3177 9.14588C6.85253 9.14588 6.41536 8.96385 6.08554 8.63559C5.92347 8.47398 5.79495 8.28192 5.70738 8.07046C5.6198 7.859 5.5749 7.63231 5.57526 7.40344C5.57526 6.93827 5.75728 6.5011 6.08554 6.17128C6.41536 5.84146 6.85253 5.661 7.3177 5.661C7.78287 5.661 8.22003 5.84146 8.54985 6.17128C8.71193 6.33289 8.84045 6.52495 8.92802 6.73641C9.0156 6.94787 9.0605 7.17456 9.06014 7.40344C9.06014 7.86861 8.87812 8.30577 8.54985 8.63559Z" fill="white"/>
</svg>