<svg xmlns="http://www.w3.org/2000/svg" width="15" height="17" viewBox="0 0 15 17" fill="none">
  <path d="M3.75658 4.21227C3.92316 4.37746 4.14826 4.47015 4.38286 4.47015C4.61746 4.47015 4.84256 4.37746 5.00914 4.21227C5.09117 4.13096 5.15629 4.03422 5.20072 3.92761C5.24516 3.821 5.26804 3.70665 5.26804 3.59116C5.26804 3.47566 5.24516 3.36131 5.20072 3.2547C5.15629 3.1481 5.09117 3.05135 5.00914 2.97004C4.84256 2.80485 4.61746 2.71217 4.38286 2.71217C4.14826 2.71217 3.92316 2.80485 3.75658 2.97004C3.41183 3.31364 3.41183 3.86982 3.75658 4.21227ZM13.8932 9.38341C14.108 9.17058 14.2785 8.91731 14.3948 8.63822C14.5112 8.35913 14.5711 8.05975 14.5711 7.75738C14.5711 7.455 14.5112 7.15562 14.3948 6.87653C14.2785 6.59744 14.108 6.34417 13.8932 6.13134L8.42325 0.69589C7.99064 0.266686 7.4066 0.0248161 6.79721 0.022492L3.0464 0.0064039C2.74141 0.00427386 2.43902 0.0626618 2.15674 0.178188C1.87446 0.293714 1.61789 0.464083 1.4019 0.679434C1.18591 0.894784 1.01478 1.15084 0.898416 1.43277C0.782051 1.71471 0.722762 2.01692 0.723985 2.32193L0.751565 6.19799C0.756536 6.80269 1.00023 7.38093 1.42956 7.80679L6.81904 13.1618C7.25415 13.5928 7.84183 13.8346 8.45427 13.8346C9.06672 13.8346 9.6544 13.5928 10.0895 13.1618L13.8932 9.38341V9.38341ZM13.075 6.94378C13.1824 7.0502 13.2676 7.17683 13.3258 7.31638C13.384 7.45592 13.4139 7.60561 13.4139 7.7568C13.4139 7.90799 13.384 8.05768 13.3258 8.19722C13.2676 8.33677 13.1824 8.46341 13.075 8.56982L9.27131 12.3505C8.8197 12.7987 8.0877 12.7987 7.63608 12.3505L2.2466 6.99434C2.0323 6.78126 1.91087 6.49214 1.90875 6.18994L1.88002 2.31388C1.87926 2.16126 1.90881 2.01001 1.96697 1.8689C2.02513 1.7278 2.11073 1.59965 2.21881 1.49189C2.32689 1.38413 2.45529 1.29891 2.59657 1.24117C2.73785 1.18343 2.88919 1.15433 3.04181 1.15555L6.79261 1.17164C7.09751 1.17265 7.38976 1.29359 7.60621 1.50833L13.0761 6.94378H13.075ZM14.5114 10.0614C14.6658 10.4745 14.698 10.9234 14.6043 11.3543C14.5106 11.7853 14.2948 12.1802 13.9828 12.4918L11.7259 14.7488C11.2991 15.1756 10.7923 15.5142 10.2346 15.7452C9.67692 15.9762 9.07918 16.0952 8.47553 16.0952C7.87188 16.0952 7.27414 15.9762 6.71645 15.7452C6.15875 15.5142 5.65201 15.1756 5.22518 14.7488L1.22386 10.7474C0.900513 10.4245 0.718642 9.98636 0.71824 9.52935V8.63302L5.22518 13.14C5.30447 13.2193 5.38606 13.2951 5.4688 13.3663L6.03763 13.9363C6.35776 14.2565 6.73782 14.5105 7.15612 14.6838C7.57442 14.8571 8.02276 14.9463 8.47553 14.9463C8.9283 14.9463 9.37664 14.8571 9.79494 14.6838C10.2132 14.5105 10.5933 14.2565 10.9134 13.9363L11.4869 13.3629C11.5691 13.2914 11.6488 13.217 11.7259 13.14L13.9828 10.883C14.2161 10.6504 14.3964 10.3701 14.5114 10.0614V10.0614Z" fill="white"/>
</svg>