<svg xmlns="http://www.w3.org/2000/svg" width="15" height="15" viewBox="0 0 15 15" fill="none">
  <path d="M7.68752 3.56311C7.19523 3.56311 6.714 3.70909 6.30469 3.98259C5.89537 4.25609 5.57634 4.64482 5.38795 5.09963C5.19956 5.55444 5.15027 6.0549 5.24631 6.53772C5.34235 7.02055 5.57941 7.46405 5.92751 7.81215C6.2756 8.16024 6.71911 8.3973 7.20193 8.49334C7.68475 8.58938 8.18522 8.54009 8.64003 8.3517C9.09484 8.16331 9.48357 7.84429 9.75707 7.43497C10.0306 7.02565 10.1765 6.54442 10.1765 6.05214C10.1765 5.39201 9.91431 4.75891 9.44752 4.29213C8.98074 3.82535 8.34765 3.56311 7.68752 3.56311ZM7.68752 7.54556C7.39215 7.54556 7.10341 7.45797 6.85782 7.29387C6.61223 7.12977 6.42081 6.89653 6.30778 6.62364C6.19475 6.35076 6.16517 6.05048 6.22279 5.76079C6.28042 5.47109 6.42265 5.20499 6.63151 4.99613C6.84037 4.78727 7.10647 4.64504 7.39616 4.58742C7.68586 4.52979 7.98614 4.55937 8.25902 4.6724C8.53191 4.78543 8.76515 4.97685 8.92925 5.22244C9.09335 5.46803 9.18093 5.75677 9.18093 6.05214C9.18054 6.4481 9.02307 6.82772 8.74308 7.10771C8.4631 7.38769 8.08347 7.54516 7.68752 7.54556Z" fill="white"/>
  <path d="M7.68748 0.576294C6.30909 0.576294 4.96165 0.985035 3.81556 1.75083C2.66947 2.51662 1.7762 3.60508 1.24871 4.87855C0.72122 6.15201 0.583205 7.5533 0.852117 8.90521C1.12103 10.2571 1.78479 11.4989 2.75946 12.4736C3.73413 13.4483 4.97594 14.112 6.32784 14.3809C7.67975 14.6498 9.08104 14.5118 10.3545 13.9843C11.628 13.4569 12.7164 12.5636 13.4822 11.4175C14.248 10.2714 14.6568 8.92397 14.6568 7.54557C14.6547 5.69785 13.9197 3.92641 12.6132 2.61988C11.3066 1.31334 9.5352 0.578402 7.68748 0.576294V0.576294ZM4.70065 12.7113V12.0258C4.70104 11.6299 4.85851 11.2502 5.1385 10.9703C5.41848 10.6903 5.79811 10.5328 6.19407 10.5324H9.1809C9.57686 10.5328 9.95648 10.6903 10.2365 10.9703C10.5165 11.2502 10.6739 11.6299 10.6743 12.0258V12.7113C9.76789 13.2406 8.73711 13.5195 7.68748 13.5195C6.63785 13.5195 5.60707 13.2406 4.70065 12.7113V12.7113ZM11.6659 11.989C11.656 11.336 11.39 10.7131 10.9252 10.2544C10.4603 9.79574 9.83393 9.53802 9.1809 9.53679H6.19407C5.54104 9.53802 4.91462 9.79574 4.4498 10.2544C3.98497 10.7131 3.71894 11.336 3.70902 11.989C2.80628 11.1829 2.16967 10.1217 1.88348 8.94573C1.5973 7.76981 1.67504 6.5347 2.1064 5.40394C2.53777 4.27318 3.30242 3.30012 4.2991 2.6136C5.29579 1.92707 6.47749 1.55947 7.68773 1.55947C8.89798 1.55947 10.0797 1.92707 11.0764 2.6136C12.073 3.30012 12.8377 4.27318 13.2691 5.40394C13.7004 6.5347 13.7782 7.76981 13.492 8.94573C13.2058 10.1217 12.5692 11.1829 11.6664 11.989H11.6659Z" fill="white"/>
</svg>