<svg xmlns="http://www.w3.org/2000/svg" width="13" height="12" viewBox="0 0 13 12" fill="none">
  <path d="M6.80759 5.637C6.48021 5.637 6.16018 5.73566 5.88797 5.92052C5.61576 6.10537 5.4036 6.36812 5.27832 6.67552C5.15304 6.98292 5.12026 7.32118 5.18413 7.64751C5.248 7.97385 5.40564 8.27361 5.63714 8.50888C5.86863 8.74416 6.16357 8.90438 6.48466 8.9693C6.80575 9.03421 7.13857 9.00089 7.44103 8.87356C7.74349 8.74623 8.00201 8.53061 8.18389 8.25395C8.36577 7.9773 8.46285 7.65204 8.46285 7.31931C8.46285 6.87313 8.28846 6.44523 7.97804 6.12974C7.66761 5.81424 7.24659 5.637 6.80759 5.637ZM6.80759 7.88008C6.69846 7.88008 6.59178 7.84719 6.50105 7.78557C6.41031 7.72395 6.33959 7.63637 6.29783 7.53391C6.25607 7.43144 6.24514 7.31869 6.26643 7.20991C6.28772 7.10113 6.34027 7.00121 6.41744 6.92279C6.4946 6.84436 6.59291 6.79095 6.69994 6.76931C6.80697 6.74768 6.91791 6.75878 7.01873 6.80123C7.11955 6.84367 7.20573 6.91554 7.26635 7.00776C7.32698 7.09998 7.35934 7.2084 7.35934 7.31931C7.35934 7.46804 7.30121 7.61067 7.19774 7.71583C7.09426 7.821 6.95392 7.88008 6.80759 7.88008ZM6.41584 4.35284C6.46831 4.40389 6.53019 4.44391 6.59792 4.4706C6.66396 4.50026 6.73538 4.51559 6.80759 4.51559C6.87979 4.51559 6.95121 4.50026 7.01725 4.4706C7.08498 4.44391 7.14686 4.40389 7.19933 4.35284L8.46285 3.0911C8.56968 2.98253 8.62969 2.83528 8.62969 2.68174C8.62969 2.5282 8.56968 2.38095 8.46285 2.27238C8.35603 2.16381 8.21114 2.10281 8.06007 2.10281C7.909 2.10281 7.76411 2.16381 7.65729 2.27238L7.35934 2.60323V0.590067C7.35934 0.441342 7.30121 0.298707 7.19774 0.193543C7.09426 0.0883778 6.95392 0.0292969 6.80759 0.0292969C6.66125 0.0292969 6.52091 0.0883778 6.41744 0.193543C6.31396 0.298707 6.25583 0.441342 6.25583 0.590067V2.60323L5.95788 2.27238C5.85106 2.16381 5.70617 2.10281 5.5551 2.10281C5.40403 2.10281 5.25915 2.16381 5.15232 2.27238C5.0455 2.38095 4.98548 2.5282 4.98548 2.68174C4.98548 2.83528 5.0455 2.98253 5.15232 3.0911L6.41584 4.35284ZM10.6699 7.31931C10.6699 7.2084 10.6375 7.09998 10.5769 7.00776C10.5163 6.91554 10.4301 6.84367 10.3293 6.80123C10.2284 6.75878 10.1175 6.74768 10.0105 6.76931C9.90344 6.79095 9.80513 6.84436 9.72797 6.92279C9.6508 7.00121 9.59825 7.10113 9.57696 7.20991C9.55567 7.31869 9.5666 7.43144 9.60836 7.53391C9.65012 7.63637 9.72084 7.72395 9.81158 7.78557C9.90231 7.84719 10.009 7.88008 10.1181 7.88008C10.2645 7.88008 10.4048 7.821 10.5083 7.71583C10.6117 7.61067 10.6699 7.46804 10.6699 7.31931ZM11.2216 3.39392H9.56636C9.42003 3.39392 9.27969 3.453 9.17621 3.55816C9.07274 3.66333 9.01461 3.80596 9.01461 3.95469C9.01461 4.10341 9.07274 4.24605 9.17621 4.35121C9.27969 4.45638 9.42003 4.51546 9.56636 4.51546H11.2216C11.368 4.51546 11.5083 4.57454 11.6118 4.6797C11.7153 4.78487 11.7734 4.9275 11.7734 5.07623V9.56239C11.7734 9.71112 11.7153 9.85375 11.6118 9.95892C11.5083 10.0641 11.368 10.1232 11.2216 10.1232H2.39355C2.24721 10.1232 2.10687 10.0641 2.0034 9.95892C1.89992 9.85375 1.84179 9.71112 1.84179 9.56239V5.07623C1.84179 4.9275 1.89992 4.78487 2.0034 4.6797C2.10687 4.57454 2.24721 4.51546 2.39355 4.51546H4.04881C4.19515 4.51546 4.33549 4.45638 4.43896 4.35121C4.54244 4.24605 4.60057 4.10341 4.60057 3.95469C4.60057 3.80596 4.54244 3.66333 4.43896 3.55816C4.33549 3.453 4.19515 3.39392 4.04881 3.39392H2.39355C1.95454 3.39392 1.53352 3.57116 1.2231 3.88666C0.912675 4.20215 0.738281 4.63005 0.738281 5.07623V9.56239C0.738281 10.0086 0.912675 10.4365 1.2231 10.752C1.53352 11.0675 1.95454 11.2447 2.39355 11.2447H11.2216C11.6606 11.2447 12.0817 11.0675 12.3921 10.752C12.7025 10.4365 12.8769 10.0086 12.8769 9.56239V5.07623C12.8769 4.63005 12.7025 4.20215 12.3921 3.88666C12.0817 3.57116 11.6606 3.39392 11.2216 3.39392ZM2.9453 7.31931C2.9453 7.43022 2.97766 7.53864 3.03829 7.63086C3.09892 7.72308 3.18509 7.79495 3.28591 7.83739C3.38673 7.87984 3.49767 7.89094 3.6047 7.86931C3.71173 7.84767 3.81004 7.79426 3.88721 7.71583C3.96437 7.63741 4.01692 7.53749 4.03821 7.42871C4.0595 7.31993 4.04857 7.20718 4.00681 7.10471C3.96505 7.00224 3.89433 6.91466 3.80359 6.85305C3.71286 6.79143 3.60618 6.75854 3.49706 6.75854C3.35072 6.75854 3.21038 6.81762 3.10691 6.92279C3.00343 7.02795 2.9453 7.17058 2.9453 7.31931Z" fill="white"/>
</svg>